Coordinates
version=1
nRows=11
nColumns=36
inDegrees=yes

Units are S.I. units (second, meters, Newtons, ...)
If the header above contains a line with 'inDegrees', this indicates whether rotational values are in degrees (yes) or radians (no).

endheader
time	pelvis_tilt	pelvis_list	pelvis_rotation	pelvis_tx	pelvis_ty	pelvis_tz	hip_flexion_r	hip_adduction_r	hip_rotation_r	knee_angle_r	knee_angle_r_beta	ankle_angle_r	subtalar_angle_r	mtp_angle_r	hip_flexion_l	hip_adduction_l	hip_rotation_l	knee_angle_l	knee_angle_l_beta	ankle_angle_l	subtalar_angle_l	mtp_angle_l	lumbar_extension	lumbar_bending	lumbar_rotation	arm_flex_r	arm_add_r	arm_rot_r	elbow_flex_r	pro_sup_r	arm_flex_l	arm_add_l	arm_rot_l	elbow_flex_l	pro_sup_l
      2.00000000	     -7.18480731	      1.99348362	      3.81134344	     -0.35302643	      1.35814552	     -0.02259351	      5.58729063	     -0.72482053	      2.30730910	      5.50000115	      0.09599313	     13.83227953	     -6.68384058	     -7.49999987	      4.16710327	      1.75217201	      2.79057803	      1.21668362	      0.02123514	      9.27333562	     -2.83502726	     -7.49999987	      4.01241505	     -2.21276739	      3.69891125	    -24.86576157	    -18.71276130	      8.31716141	     76.26957832	     86.99091039	    -24.91554744	    -18.07615782	     12.51283977	     84.32516806	     96.13835170
      2.01666670	     -7.28124547	      2.07867655	      3.77704149	     -0.35972272	      1.35831544	     -0.01834878	      5.77158207	     -0.79421804	      2.51709193	      5.46386950	      0.09536251	     13.94737905	     -6.63956446	     -7.49999987	      4.43934741	      1.83981385	      2.83624183	      1.17368869	      0.02048473	      9.26857659	     -2.79422181	     -7.49999987	      3.90245825	     -2.40023270	      3.66703471	    -24.53013716	    -18.59040165	      8.30412465	     76.32523161	     87.02511090	    -24.65436043	    -18.08814669	     12.48648580	     84.26209355	     96.17543262
      2.03333330	     -7.77479301	      2.14188177	      3.84502125	     -0.35991076	      1.35161374	     -0.01868464	      6.57474673	     -0.77398628	      3.17465002	      5.74570123	      0.10028140	     14.24538810	     -6.78792135	     -7.49999987	      5.19073670	      1.98445271	      2.92456922	      1.21026919	      0.02112318	      9.29580392	     -2.68243210	     -7.49999987	      4.24289672	     -2.69825144	      3.43820380	    -24.13241554	    -18.51605254	      8.41453625	     76.33341842	     88.69657212	    -24.82034426	    -18.06335437	     12.12483655	     84.41140224	     97.91179833
      2.05000000	     -8.03524210	      2.16472864	      4.07698214	     -0.35946582	      1.35464356	     -0.01850266	      6.96506229	     -0.77801046	      3.39692372	      5.86942407	      0.10244078	     14.41800874	     -6.67153079	     -7.49999987	      5.72353593	      2.03023909	      3.07056500	      1.29567002	      0.02261371	      9.38575594	     -2.39418445	     -7.49999987	      4.26425812	     -2.84188315	      3.56222366	    -24.32891719	    -18.21752326	      7.93867183	     76.56551095	     88.61797374	    -24.50492405	    -18.21592174	     12.34928684	     84.34298988	     97.65729244
      2.06666670	     -8.00016156	      2.14563325	      4.27754694	     -0.35204147	      1.35665110	     -0.01620387	      6.87845712	     -0.66658503	      3.66729424	      5.87200125	      0.10248576	     14.36243118	     -6.52038842	     -7.49999987	      5.73666470	      1.97175602	      3.17531848	      1.39363180	      0.02432346	      9.28978431	     -2.30439090	     -7.49999987	      4.27201600	     -2.97740686	      3.43066057	    -24.47022415	    -18.05714978	      8.00106393	     76.54042923	     88.61981483	    -24.49406873	    -18.22944401	     12.34668329	     84.30750593	     97.65419601
      2.08333330	     -8.08032963	      2.16840590	      4.52631490	     -0.35963849	      1.35452211	     -0.01897901	      6.94372107	     -0.71799652	      3.55007949	      5.76454865	      0.10061035	     14.27823057	     -6.51557556	     -7.49999987	      5.96705454	      2.07697994	      3.45335157	      1.62533099	      0.02836738	      9.50392933	     -2.12762758	     -7.49999987	      4.20803758	     -3.05875458	      3.47445318	    -24.38139390	    -17.96567487	      7.99747906	     76.46524382	     88.59326762	    -24.29420465	    -18.32938528	     12.29972703	     84.31370087	     97.60773793
      2.10000000	     -8.11425010	      2.19316180	      4.71249263	     -0.35954846	      1.35635262	     -0.01935977	      6.97229146	     -0.76356155	      3.49148778	      5.66638074	      0.09889700	     13.96423097	     -6.55093342	     -7.49999987	      6.07880222	      2.14773542	      3.55601882	      1.91046525	      0.03334391	      9.64234753	     -2.02706953	     -7.49999987	      4.19975459	     -3.11987367	      3.79338523	    -24.36205923	    -17.79657827	      7.78294630	     76.03956235	     87.96045152	    -23.65242246	    -18.51386744	     13.07994820	     83.68163040	     96.72878237
      2.11666670	     -8.20378228	      2.17685913	      4.89675810	     -0.35972886	      1.35422699	     -0.01927257	      7.16655864	     -0.80302747	      3.26372789	      5.72849778	      0.09998115	     13.77347035	     -6.49899693	     -7.49999987	      6.23511388	      2.19897992	      3.80565474	      2.17234395	      0.03791455	      9.71743607	     -2.20491936	     -7.49999987	      4.15664967	     -3.11535537	      3.97361163	    -24.41276653	    -17.81657813	      7.73300672	     76.08429919	     87.67871244	    -23.37468536	    -18.75269887	     13.40245957	     83.76672817	     96.43393745
      2.13333330	     -8.19232801	      2.20841200	      5.07754793	     -0.35952373	      1.35390251	     -0.01970851	      7.16801393	     -0.90379839	      3.02145308	      5.75360814	      0.10041941	     13.83105500	     -6.17163420	     -7.49999987	      6.37517959	      2.29677650	      3.99394778	      2.40292315	      0.04193892	      9.84203459	     -2.29434504	     -7.49999987	      4.05953080	     -3.17087327	      4.04730433	    -24.47976924	    -17.80559114	      7.65011942	     76.06690723	     86.66609980	    -23.12949377	    -18.84684201	     13.76046103	     83.79556264	     94.85214055
      2.15000000	     -8.33537384	      2.22889627	      5.19053582	     -0.35939846	      1.35704912	     -0.01954638	      7.40186995	     -0.90355125	      3.20305047	      5.64635522	      0.09854749	     13.50930231	     -6.44408611	     -7.49999987	      6.60677229	      2.32294121	      4.20353710	      2.47326427	      0.04316660	      9.72878522	     -2.46839042	     -7.49999987	      4.20522779	     -3.19814014	      4.03112889	    -24.39772618	    -17.67364051	      7.57129667	     75.59793752	     87.65154824	    -22.77111390	    -18.87042022	     13.93509477	     83.69552520	     96.07338980
      2.16666670	     -8.33048409	      2.25331865	      5.35277472	     -0.35913918	      1.35893631	     -0.01964010	      7.44993661	     -0.87186268	      3.37023138	      5.33421239	      0.09309957	     13.28458659	     -6.22392740	     -7.49999987	      6.68959150	      2.37790095	      4.24393970	      2.40572738	      0.04198786	      9.66494208	     -2.27405742	     -7.49999987	      4.25542576	     -3.23760012	      3.94000648	    -24.22311192	    -17.58691763	      7.92274891	     75.02306791	     85.13306064	    -22.55692079	    -18.98465026	     14.41298569	     83.33030593	     93.08556797
